:SAMPLES-PER-SECOND 30
:FRAME-RANGE 1-1390
:FULLY-SPECIFIED
:DEGREES
609
root  32.8468 35.2781 17.5937 168.382 34.4989 -178.099
RightUpLeg  -86.7194 -13.6312 57.3617
RightLeg  126.818 7.32852 -8.40891
RightFoot  -34.7116 -0.0921549 0.699204
RightToes  6.35937e-011 1.2921e-014 -6.02303e-014
Spine  15.7151 -1.4852 6.39207
Spine1  -2.65117 2.0385 -5.32521
HEad  2.84201 26.4751 -13.2842
LeftShoulder1  3.31189 -8.98696 -20.7966
LeftArm  56.4876 -25.3493 -71.1649
LeftForeArm  20.9409 -6.88184 -17.5701
LeftHand  0.00598346 7.38641 2.48868
RightShoulder  2.85547 6.66177 22.5186
RightArm  -0.840477 33.1472 92.0298
RightForeArm  124.15 -3.43581 7.00481
RightHand  1.48701 -20.0048 -12.1313
LeftUpLeg  -14.7327 -15.8332 -15.5906
LeftLeg  48.1668 4.44402 5.75394
LeftFoot  -15.8429 0.549627 11.511
LeftToes  4.52251e-011 4.07896e-011 -5.42348e-012
610
root  33.2947 35.682 16.3308 168.348 34.6117 -178.295
RightUpLeg  -86.2094 -14.1793 58.5969
RightLeg  129.62 5.2715 -5.31762
RightFoot  -34.7009 0.156172 1.90065
RightToes  6.35937e-011 1.2921e-014 -6.02303e-014
Spine  13.2208 -0.927109 7.09642
Spine1  -2.28613 2.38983 -4.81159
HEad  5.75159 27.9599 -12.07
LeftShoulder1  3.25528 -8.74496 -20.8734
LeftArm  66.2257 -22.7125 -71.4118
LeftForeArm  11.2841 -9.84929 -16.7628
LeftHand  0.000728937 7.189 2.36915
RightShoulder  2.88919 6.71616 22.7118
RightArm  -3.28123 32.4113 91.4113
RightForeArm  126.817 -3.08473 5.56848
RightHand  1.33062 -19.8997 -11.0265
LeftUpLeg  -11.2574 -13.1826 -16.4277
LeftLeg  45.556 3.70023 4.46575
LeftFoot  -16.4046 0.681168 13.1048
LeftToes  4.52251e-011 4.07896e-011 -5.42348e-012
611
root  33.6673 36.5779 15.0977 168.805 33.8338 -177.834
RightUpLeg  -86.5692 -15.1601 59.7776
RightLeg  131.024 4.06919 -3.76871
RightFoot  -35.7731 0.0490638 1.35494
RightToes  6.35937e-011 1.2921e-014 -6.02303e-014
Spine  10.6884 -0.87966 8.4447
Spine1  -1.89223 2.31937 -4.78447
HEad  9.11749 29.242 -10.6191
LeftShoulder1  3.30883 -8.57877 -21.7579
LeftArm  61.1412 -21.376 -71.3405
LeftForeArm  15.5893 -8.51856 -17.1838
LeftHand  0.0108712 7.5418 2.60576
RightShoulder  2.92541 6.73243 23.0458
RightArm  -4.61622 31.572 90.1121
RightForeArm  128.998 -2.91802 5.12752
RightHand  1.37546 -20.0987 -11.2209
LeftUpLeg  -6.28122 -12.4183 -16.6697
LeftLeg  39.5283 2.78222 2.85517
LeftFoot  -14.3628 0.458968 14.038
LeftToes  4.52251e-011 4.07896e-011 -5.42348e-012
612
root  33.9612 37.7504 13.9891 169.459 32.4909 -176.68
RightUpLeg  -87.5427 -16.0959 62.1441
RightLeg  132.26 4.79769 -4.3361
RightFoot  -35.8083 0.173034 1.92592
RightToes  6.35937e-011 1.2921e-014 -6.02303e-014
Spine  9.25576 -0.937821 9.37233
Spine1  -2.06883 2.01262 -3.73344
HEad  12.0589 29.7659 -9.2437
LeftShoulder1  3.32568 -8.448 -22.2402
LeftArm  46.3761 -21.5254 -72.2946
LeftForeArm  29.4995 -4.27506 -17.895
LeftHand  0.0130148 7.91338 2.41909
RightShoulder  2.85988 6.3925 23.4091
RightArm  -4.53286 31.1607 88.5428
RightForeArm  127.641 -3.09046 5.82226
RightHand  1.23041 -19.5093 -10.5327
LeftUpLeg  -1.57093 -10.4704 -15.3509
LeftLeg  33.1737 -0.920524 -0.280993
LeftFoot  -9.07916 -0.218729 13.7848
LeftToes  4.52251e-011 4.07896e-011 -5.42348e-012
613
root  34.2473 38.8747 13.1043 169.775 30.0553 -176.019
RightUpLeg  -89.1421 -15.8639 62.5674
RightLeg  133.019 4.04808 -3.46914
RightFoot  -35.7735 0.30605 2.54203
RightToes  6.35937e-011 1.2921e-014 -6.02303e-014
Spine  9.20091 -1.18687 8.62417
Spine1  -3.01782 1.48913 -2.11793
HEad  12.7942 29.4765 -8.62478
LeftShoulder1  3.37344 -8.83249 -21.7044
LeftArm  45.8215 -21.4592 -73.4834
LeftForeArm  29.6609 -4.07088 -17.9251
LeftHand  -0.00233752 7.79668 1.8111
RightShoulder  2.77096 6.12908 23.2796
RightArm  -4.78087 31.0402 87.9492
RightForeArm  126.025 -3.16822 5.86719
RightHand  1.08573 -19.0222 -9.71564
LeftUpLeg  0.681894 -8.19146 -13.5192
LeftLeg  30.3779 -6.97615 -4.04898
LeftFoot  -1.11742 -0.89036 10.0007
LeftToes  4.52251e-011 4.07896e-011 -5.42348e-012
614
root  34.5109 39.6987 12.4813 170.321 27.1252 -175.483
RightUpLeg  -90.8287 -14.165 61.3721
RightLeg  131.636 2.42476 -1.96233
RightFoot  -35.997 0.481311 3.32733
RightToes  6.35937e-011 1.2921e-014 -6.02303e-014
Spine  10.0554 -1.72292 8.00338
Spine1  -3.97178 1.01043 -1.82805
HEad  10.8982 28.2246 -8.4777
LeftShoulder1  3.55898 -9.55126 -21.5845
LeftArm  48.26 -21.8893 -72.9842
LeftForeArm  26.4185 -4.72701 -17.9273
LeftHand  -0.00153888 7.65527 1.91962
RightShoulder  2.66553 5.89757 22.8448
RightArm  -4.05177 31.5454 88.7692
RightForeArm  124.02 -3.28652 6.05021
RightHand  1.0509 -18.8481 -9.54761
LeftUpLeg  -0.356351 -8.88294 -11.3154
LeftLeg  32.0223 -11.5484 -7.34578
LeftFoot  3.46899 0.564088 -4.50168
LeftToes  4.52251e-011 4.07896e-011 -5.42348e-012
615
root  34.7809 40.1103 11.9657 171.087 25.919 -174.041
RightUpLeg  -90.4486 -11.611 60.7198
RightLeg  128.358 1.66474 -1.35313
RightFoot  -35.9888 0.608317 3.90933
RightToes  6.35937e-011 1.2921e-014 -6.02303e-014
Spine  11.3929 -1.96975 9.04753
Spine1  -3.86655 1.11107 -2.58813
HEad  7.09615 26.6705 -9.26141
LeftShoulder1  3.73198 -10.123 -21.6995
LeftArm  41.5353 -23.474 -71.4188
LeftForeArm  31.2989 -2.72228 -18.0448
LeftHand  0.000824197 7.59789 2.26127
RightShoulder  2.6127 5.94251 22.0869
RightArm  -2.30729 32.5911 90.8624
RightForeArm  122.352 -3.42756 6.45932
RightHand  1.06429 -18.7714 -9.71006
LeftUpLeg  -2.82501 -8.75656 -7.67351
LeftLeg  35.5948 -12.5662 -9.15205
LeftFoot  -0.0359583 1.40598 -14.1455
LeftToes  4.52251e-011 4.07896e-011 -5.42348e-012
616
root  35.0307 40.3403 11.5058 171.55 25.1211 -173.804
RightUpLeg  -89.4572 -9.86698 59.2473
RightLeg  124.76 1.42705 -1.27005
RightFoot  -35.2047 0.619529 4.06856
RightToes  6.35937e-011 1.2921e-014 -6.02303e-014
Spine  13.9024 -2.19207 8.15577
Spine1  -4.99833 1.02985 -2.57306
HEad  2.6967 25.5416 -10.7469
LeftShoulder1  3.73243 -10.2113 -21.509
LeftArm  36.0792 -24.8504 -69.7868
LeftForeArm  35.2424 -1.09084 -17.975
LeftHand  -0.00206019 7.68197 2.35771
RightShoulder  2.65751 6.15842 21.907
RightArm  -1.64085 33.4206 93.0693
RightForeArm  122.178 -3.36702 6.03958
RightHand  1.06676 -18.8909 -9.64928
LeftUpLeg  -5.16065 -10.9593 -6.18567
LeftLeg  34.6774 -8.78875 -6.1255
LeftFoot  -5.87937 0.477389 -9.25614
LeftToes  4.52251e-011 4.07896e-011 -5.42348e-012
617
root  35.2364 40.231 11.0439 172.529 22.5728 -174.634
RightUpLeg  -90.2707 -9.70335 58.0092
RightLeg  122.07 1.24463 -1.16863
RightFoot  -34.9263 0.684017 4.41725
RightToes  6.35937e-011 1.2921e-014 -6.02303e-014
Spine  15.1888 -2.59485 6.16922
Spine1  -5.75991 0.45466 -2.07386
HEad  -1.31818 23.805 -12.7945
LeftShoulder1  3.82106 -10.7478 -21.0545
LeftArm  38.3067 -26.37 -69.0351
LeftForeArm  33.4091 -1.73099 -18.0323
LeftHand  -0.00501611 7.58739 1.96077
RightShoulder  2.68449 6.1955 22.0938
RightArm  -2.16605 34.0216 94.2551
RightForeArm  122.647 -3.1763 5.00392
RightHand  1.17686 -19.5555 -10.0821
LeftUpLeg  -8.01066 -15.0708 -6.20702
LeftLeg  30.5693 -1.13477 -0.362586
LeftFoot  -12.428 0.0428432 -3.33685
LeftToes  4.52251e-011 4.07896e-011 -5.42348e-012
618
root  35.3556 39.6447 10.465 173.664 20.0616 -175.025
RightUpLeg  -91.325 -10.4682 58.0885
RightLeg  120.825 0.874419 -0.667248
RightFoot  -34.8658 0.740409 4.69749
RightToes  6.35937e-011 1.2921e-014 -6.02303e-014
Spine  15.6199 -2.84939 5.61053
Spine1  -5.51797 0.207538 -1.79021
HEad  -3.99447 21.7927 -14.7689
LeftShoulder1  3.94303 -11.3971 -20.654
LeftArm  34.1742 -28.0853 -69.3696
LeftForeArm  38.4126 -0.584771 -17.8435
LeftHand  -0.00791564 7.63792 1.62281
RightShoulder  2.6817 6.33224 21.6362
RightArm  -2.40487 34.7764 94.5493
RightForeArm  122.251 -3.0941 4.39802
RightHand  1.20584 -18.9179 -10.7687
LeftUpLeg  -10.9731 -17.673 -5.98274
LeftLeg  27.5503 7.58349 4.62697
LeftFoot  -17.4524 0.160752 1.04949
LeftToes  4.52251e-011 4.07896e-011 -5.42348e-012
